<svg width="103" height="33" viewBox="0 0 103 33" fill="none" xmlns="http://www.w3.org/2000/svg">
<path d="M10.112 6.22061V10.4384C10.112 10.4952 10.0714 10.5358 10.0149 10.5358H5.79679C5.79679 10.5358 5.74807 10.5277 5.72412 10.5114L10.0795 6.15566C10.0795 6.15566 10.1038 6.19625 10.1038 6.22873L10.112 6.22061Z" fill="#935BFF"/>
<path d="M68.4106 11.4264L65.966 8.98142L63.521 11.4264H68.4029H68.4106Z" fill="#7B3DF5"/>
<path d="M63.5293 11.4264L65.9743 13.8714L68.4193 11.4264H63.5374H63.5293Z" fill="#8E54FF"/>
<path d="M70.856 13.8714L68.411 11.4264L65.9661 13.8714H70.8479H70.856Z" fill="#9F6FFD"/>
<path d="M65.9661 13.8718L68.411 16.3168L70.856 13.8718H65.9742H65.9661Z" fill="#B087FF"/>
<path d="M68.4109 16.3071H73.2928L70.8478 13.8621L68.4028 16.3071H68.4109Z" fill="#B793FF"/>
<path d="M10.0877 6.14835L5.73195 10.5041C5.73195 10.5041 5.70801 10.4635 5.70801 10.431V6.21329C5.70801 6.15646 5.7482 6.11587 5.80503 6.11587H10.0232C10.0232 6.11587 10.0715 6.12399 10.0958 6.14023L10.0877 6.14835Z" fill="#A87CFF"/>
<path d="M49.0699 24.1693C49.0699 24.1129 49.143 24.0804 49.1832 24.121L53.1419 28.0554C53.1419 28.0554 53.1663 28.12 53.1419 28.1443L49.1832 32.1278C49.143 32.168 49.0699 32.136 49.0699 32.0791V24.1693ZM0.137616 0.00279043L4.32288 0.957971V0.949851C4.37159 0.966088 4.41219 1.00669 4.41219 1.06311V15.7818C4.41219 15.8386 4.37971 15.8869 4.32288 15.895L0.137616 16.7536C0.0649526 16.7613 0 16.713 0 16.6399V0.116048C0 0.0433844 0.0645467 -0.0134473 0.137616 0.00279043ZM15.6738 0.00279043C15.7469 -0.0134473 15.8115 0.0433844 15.8115 0.116048V16.6399C15.8115 16.713 15.7469 16.7613 15.6738 16.7536L11.4886 15.895C11.4317 15.8869 11.3993 15.8386 11.3993 15.7818V1.06311C11.3993 1.00669 11.4399 0.966088 11.4886 0.949851V0.957971L15.6738 0.00279043ZM40.6904 0.174503C42.9653 0.174503 44.9248 0.878811 46.5198 2.13358C46.5681 2.17417 46.5762 2.2306 46.5437 2.28743L44.8518 4.74866C44.8193 4.79737 44.7466 4.81321 44.6979 4.78073C43.3218 3.84179 41.9614 3.27509 40.6503 3.27509C39.3387 3.27509 38.6019 3.8905 38.6019 4.65976V4.70807C38.6019 5.75215 39.2818 6.09233 42.0345 6.79664C45.2646 7.63856 47.0784 8.79672 47.0784 11.5738V11.6221C47.0784 14.7795 44.6654 16.5522 41.2328 16.5522C38.8609 16.5522 36.4561 15.7347 34.5619 14.0752L34.5376 14.0508C34.5055 14.0106 34.5104 13.9558 34.5457 13.9132L36.4727 11.6058C36.5129 11.5575 36.586 11.549 36.6343 11.5896C38.0429 12.7311 39.5165 13.4521 41.2973 13.4521C42.7303 13.4521 43.5966 12.885 43.5966 11.9537V11.9054C43.5966 11.0148 43.0542 10.5613 40.3909 9.88139C37.1851 9.06383 35.1205 8.17319 35.1205 5.01577V4.96706C35.1205 2.07675 37.4441 0.174503 40.6904 0.174503ZM27.3479 0.279237C27.3966 0.279237 27.4372 0.311304 27.4535 0.351898L34.1893 16.1634C34.2132 16.2364 34.1649 16.3172 34.0841 16.3172H30.6673C30.619 16.3172 30.5784 16.2847 30.5622 16.2445L29.1617 12.8119C29.1454 12.7632 29.1048 12.7388 29.0561 12.7388H22.4823C22.4336 12.7388 22.3934 12.7713 22.3772 12.8119L20.9767 16.2445C20.9604 16.2928 20.9198 16.3172 20.8711 16.3172H17.544C17.4632 16.3172 17.4064 16.2364 17.4385 16.1634L24.1662 0.360019C24.1824 0.311305 24.2311 0.286949 24.2717 0.286949V0.279237H27.3479ZM52.4863 0.39168C52.5509 0.39168 52.5996 0.440396 52.5996 0.504941V6.58514C52.5996 6.64969 52.6483 6.6984 52.7132 6.6984H58.9469C59.0114 6.6984 59.0601 6.64969 59.0601 6.58514V0.513058C59.0601 0.448108 59.1089 0.399395 59.1738 0.399395V0.39168H62.4526C62.5172 0.39168 62.5659 0.440396 62.5659 0.504941V16.195C62.5659 16.2596 62.5172 16.3083 62.4526 16.3083H59.1738C59.1089 16.3083 59.0601 16.2596 59.0601 16.195V10.034C59.0601 9.96908 59.0114 9.92077 58.9469 9.92037H52.7132C52.6483 9.92037 52.5996 9.96908 52.5996 10.034V16.195C52.5996 16.2596 52.5509 16.3083 52.4863 16.3083H49.2075C49.1426 16.3083 49.0939 16.2596 49.0939 16.195V0.504941C49.0939 0.440396 49.1426 0.39168 49.2075 0.39168H52.4863ZM86.57 0.39168C86.6346 0.39168 86.6833 0.440396 86.6833 0.504941V3.38713C86.6833 3.45168 86.6346 3.50039 86.57 3.50039H78.2714C78.2068 3.50039 78.1585 3.5491 78.1585 3.61365V6.61762C78.1585 6.68216 78.2068 6.73088 78.2714 6.73088H85.5499C85.6149 6.73088 85.6632 6.77959 85.6632 6.84414V9.73404C85.6632 9.79899 85.6149 9.8477 85.5499 9.8477H78.2714C78.2068 9.8477 78.1585 9.89641 78.1585 9.96096V13.0782C78.1585 13.1427 78.2068 13.1915 78.2714 13.1915H86.6833C86.7483 13.1915 86.7966 13.2402 86.7966 13.3047V16.195C86.7966 16.2596 86.7483 16.3083 86.6833 16.3083H74.7904C74.7259 16.3083 74.6771 16.2596 74.6771 16.195V0.513058C74.6771 0.448108 74.7259 0.399395 74.7904 0.399395V0.39168H86.57ZM91.3874 0.399395C91.4271 0.399395 91.4819 0.453791 91.4844 0.456227L95.1521 6.62533C95.2008 6.698 95.3059 6.6984 95.3465 6.62533L99.0788 0.456227C99.1031 0.423751 99.1762 0.399395 99.1762 0.399395H102.884C102.981 0.399395 103.029 0.496821 102.981 0.569484L96.9902 9.9366C96.9743 9.95203 96.9739 9.99019 96.9739 9.99303V16.195C96.9739 16.2596 96.9252 16.3083 96.8603 16.3083H93.5815C93.5169 16.3083 93.4682 16.2596 93.4682 16.195V10.0661C93.4682 10.0499 93.452 10.0093 93.452 10.0093L87.4692 0.569484C87.4205 0.496821 87.4773 0.399395 87.5662 0.399395H91.3874ZM25.826 4.64312C25.8017 4.58629 25.729 4.58629 25.7047 4.64312H25.6966L23.6806 9.55705C23.6644 9.59764 23.6969 9.64595 23.7452 9.64635H27.7774C27.8257 9.64595 27.8582 9.59764 27.842 9.55705L25.826 4.64312ZM73.1959 0.399395C73.2523 0.399395 73.2844 0.472464 73.2442 0.513058L66.0229 7.74248C65.9742 7.78308 65.9011 7.78308 65.8605 7.74248L63.5454 5.42699C63.5048 5.37828 63.5048 5.30561 63.5454 5.26543L68.3785 0.431871C68.4029 0.407921 68.4597 0.399395 68.4597 0.399395H73.1959Z" fill="black"/>
<path d="M78.2642 26.2583C78.2236 26.307 78.1586 26.307 78.1184 26.2583C77.5112 25.6271 76.6773 25.2301 75.8675 25.2301C74.2486 25.2301 72.9853 26.4771 72.9853 28.0721C72.9853 29.6666 74.2486 30.9299 75.8675 30.9299C76.6611 30.9299 77.4949 30.5735 78.1184 29.9987C78.1586 29.9581 78.2236 29.9662 78.2642 29.9987L79.098 30.9299C79.098 30.9299 79.1305 31.0269 79.098 31.0594C78.2155 31.9176 76.9851 32.468 75.7786 32.468C73.2528 32.468 71.3096 30.5654 71.3096 28.096C71.3096 25.6271 73.2849 23.7727 75.8431 23.7727C77.0415 23.7727 78.256 24.2749 79.0899 25.0843C79.1223 25.1168 79.1304 25.1737 79.0899 25.2138L78.2561 26.2583H78.2642Z" fill="#9F6FFD"/>
<path d="M66.7186 32.3154C66.6297 32.3154 66.5728 32.2586 66.5728 32.1697V25.4826C66.5728 25.4257 66.5326 25.3852 66.4758 25.3852H63.9821C63.8932 25.3852 63.8445 25.3287 63.8445 25.2394V24.0898C63.8445 24.0009 63.8932 23.9441 63.9821 23.9441H70.694C70.7829 23.9441 70.8397 24.0009 70.8397 24.0898V25.2394C70.8397 25.3287 70.7829 25.3852 70.694 25.3852H68.2084C68.1515 25.3852 68.1113 25.4257 68.1113 25.4826V32.1697C68.1113 32.2586 68.0545 32.3154 67.9656 32.3154H66.7186Z" fill="#9F6FFD"/>
<path d="M59.279 32.4757C56.834 32.4757 55.0527 30.7517 55.0527 28.1285C55.0527 25.5053 56.834 23.7809 59.279 23.7809C61.724 23.7809 63.5049 25.5053 63.5049 28.1285C63.5049 30.7517 61.724 32.4757 59.279 32.4757ZM59.279 30.9701C60.8902 30.9701 61.9022 29.7799 61.9022 28.1285C61.9022 26.4767 60.8821 25.2869 59.279 25.2869C57.6759 25.2869 56.6558 26.4767 56.6558 28.1285C56.6558 29.7799 57.6678 30.9701 59.279 30.9701Z" fill="#9F6FFD"/>
</svg>
